<svg width="32" height="32" viewBox="0 0 32 32" fill="none" xmlns="http://www.w3.org/2000/svg">
<path d="M1.98 23.14C1.9 22.8333 1.86 22.5333 1.86 22.24L3.28 21.96C3.30667 21.1467 3.32 20.3133 3.32 19.46C3.33333 18.6067 3.34 17.7867 3.34 17C3.34 16.36 3.33333 15.7133 3.32 15.06C3.30667 14.4067 3.29333 13.76 3.28 13.12C3.26667 12.4667 3.24667 11.84 3.22 11.24L1.84 10.82C1.84 10.6867 1.84667 10.5533 1.86 10.42C1.88667 10.2867 1.92 10.1467 1.96 10C2.78667 10 3.59333 10 4.38 10C5.16667 10 5.91333 10 6.62 10C7.34 9.98667 8.01333 9.97333 8.64 9.96C9.26667 9.94667 9.84 9.93333 10.36 9.92C10.8933 9.90667 11.3667 9.88667 11.78 9.86L11.86 10.04L11.82 13.72C11.58 13.7467 11.3333 13.7733 11.08 13.8C10.84 13.8267 10.6 13.8467 10.36 13.86L10.2 13.68L9.52 11.18C9.18667 11.18 8.81333 11.2 8.4 11.24C7.98667 11.2667 7.60667 11.3 7.26 11.34C6.92667 11.3667 6.69333 11.3867 6.56 11.4C6.54667 11.7467 6.52667 12.18 6.5 12.7C6.48667 13.2067 6.47333 13.74 6.46 14.3C6.44667 14.86 6.43333 15.3867 6.42 15.88L10.24 15.72L10.68 16.14L10.58 17.28L6.42 17.16L6.4 21.78C6.68 21.7667 6.96 21.7533 7.24 21.74C7.53333 21.7267 7.81333 21.7067 8.08 21.68C8.36 21.6533 8.62667 21.6267 8.88 21.6C9.13333 21.5733 9.36 21.5467 9.56 21.52C9.77333 21.4933 9.95333 21.4667 10.1 21.44L10.78 19.18C11.0333 19.1933 11.28 19.2133 11.52 19.24C11.76 19.2533 12 19.28 12.24 19.32L12.28 19.48L12.12 22.92L12.06 23.12C11.5933 23.0933 11.0867 23.0667 10.54 23.04C10.0067 23.0267 9.45333 23.0133 8.88 23C8.32 23 7.77333 23 7.24 23C6.69333 23 6.16667 23 5.66 23C5.15333 23.0133 4.67333 23.0267 4.22 23.04C3.76667 23.0667 3.34667 23.0867 2.96 23.1C2.58667 23.1133 2.26 23.1267 1.98 23.14ZM12.6038 23.18C12.5638 23.02 12.5304 22.8667 12.5038 22.72C12.4904 22.56 12.4838 22.4 12.4838 22.24L13.8238 21.92C13.8904 21.4133 13.9438 20.9067 13.9838 20.4C14.0238 19.8933 14.0571 19.38 14.0838 18.86C14.1104 18.34 14.1304 17.82 14.1438 17.3C14.1571 16.8467 14.1704 16.36 14.1838 15.84C14.1971 15.32 14.2038 14.7867 14.2038 14.24C14.2171 13.6933 14.2238 13.16 14.2238 12.64C14.2371 12.12 14.2438 11.6333 14.2438 11.18L12.8438 10.76C12.8438 10.6267 12.8504 10.5 12.8638 10.38C12.8771 10.26 12.9038 10.1333 12.9438 10C13.8238 9.98667 14.6904 9.96667 15.5438 9.94C16.4104 9.9 17.2838 9.86 18.1638 9.82C18.3238 10.3533 18.4771 10.8867 18.6238 11.42C18.7704 11.9533 18.9238 12.48 19.0838 13C19.2438 13.5067 19.3971 14.02 19.5438 14.54C19.7038 15.0467 19.8571 15.5533 20.0038 16.06C20.1638 16.5533 20.3171 17.04 20.4638 17.52C20.6238 18 20.7771 18.48 20.9238 18.96L21.0838 18.88C21.2438 18.3733 21.4104 17.8467 21.5838 17.3C21.7571 16.74 21.9304 16.18 22.1038 15.62C22.2771 15.06 22.4438 14.5067 22.6038 13.96C22.7771 13.4133 22.9304 12.8933 23.0638 12.4C23.2104 11.9067 23.3371 11.46 23.4438 11.06C23.5638 10.6467 23.6571 10.2933 23.7238 10C24.5638 9.97333 25.4038 9.94 26.2438 9.9C27.0971 9.86 27.9371 9.81333 28.7638 9.76C28.7904 9.92 28.8104 10.08 28.8238 10.24C28.8371 10.4 28.8438 10.5533 28.8438 10.7L27.4638 11.12C27.4771 11.5733 27.4904 12.12 27.5038 12.76C27.5171 13.3867 27.5371 14.06 27.5638 14.78C27.5904 15.5 27.6171 16.22 27.6438 16.94C27.6704 17.46 27.6904 17.96 27.7038 18.44C27.7304 18.9067 27.7571 19.3467 27.7838 19.76C27.8104 20.1733 27.8371 20.5533 27.8638 20.9C27.8904 21.2333 27.9104 21.5267 27.9238 21.78L29.4438 22.22C29.4438 22.3533 29.4304 22.4867 29.4038 22.62C29.3904 22.74 29.3704 22.8667 29.3438 23C28.3838 23.0133 27.4238 23.0333 26.4638 23.06C25.5171 23.1 24.5638 23.14 23.6038 23.18C23.5771 23.02 23.5504 22.8667 23.5238 22.72C23.4971 22.56 23.4838 22.4 23.4838 22.24L24.7438 21.98C24.7438 21.7533 24.7371 21.4 24.7238 20.92C24.7238 20.44 24.7238 19.8867 24.7238 19.26C24.7238 18.6333 24.7171 17.98 24.7038 17.3C24.7038 16.62 24.6971 15.9733 24.6838 15.36C24.6838 14.7333 24.6771 14.1867 24.6638 13.72C24.6504 13.2533 24.6371 12.9133 24.6238 12.7H24.4638L21.5238 22.02V22.66C21.2971 22.7133 21.0371 22.78 20.7438 22.86C20.4504 22.9267 20.1571 22.9867 19.8638 23.04C19.5704 23.0933 19.3104 23.1333 19.0838 23.16L18.9638 23L15.8038 12.7H15.6438C15.6171 13.3933 15.5971 14.1133 15.5838 14.86C15.5838 15.5933 15.5771 16.3467 15.5638 17.12C15.5638 17.88 15.5704 18.6467 15.5838 19.42C15.5971 20.18 15.6104 20.94 15.6238 21.7L17.1038 22.24C17.1038 22.3733 17.0971 22.5 17.0838 22.62C17.0704 22.74 17.0438 22.8667 17.0038 23C16.2704 23.0133 15.5371 23.0333 14.8038 23.06C14.0704 23.0867 13.3371 23.1267 12.6038 23.18Z" fill="white"/>
</svg>
